<svg width="29" height="33" viewBox="0 0 29 33" fill="none" xmlns="http://www.w3.org/2000/svg">
<path fill-rule="evenodd" clip-rule="evenodd" d="M16.9144 9.05615C16.9144 12.1405 14.3904 14.6123 11.2409 14.6123C8.09249 14.6123 5.56737 12.1405 5.56737 9.05615C5.56737 5.97176 8.09249 3.5 11.2409 3.5C14.3904 3.5 16.9144 5.97176 16.9144 9.05615ZM2.66668 20.9036C2.66668 18.0484 6.61646 17.334 11.2409 17.334C15.8905 17.334 19.8151 18.073 19.8151 20.9304C19.8151 23.7856 15.8653 24.5 11.2409 24.5C6.59134 24.5 2.66668 23.761 2.66668 20.9036ZM19.2023 9.15687C19.2023 10.7276 18.7206 12.1932 17.8758 13.4106C17.7879 13.5358 17.8656 13.7046 18.0185 13.7315C18.2309 13.7661 18.4489 13.7874 18.6715 13.7918C20.8861 13.8489 22.8736 12.4526 23.4227 10.3497C24.2366 7.22955 21.8485 4.428 18.8062 4.428C18.4763 4.428 18.1601 4.46154 17.8519 4.52302C17.8096 4.53197 17.764 4.55209 17.7411 4.58786C17.7115 4.6337 17.7332 4.69295 17.7628 4.73208C18.6772 5.98752 19.2023 7.51574 19.2023 9.15687ZM22.8701 15.986C24.3587 16.2711 25.337 16.8513 25.7423 17.6976C26.0859 18.3907 26.0859 19.1956 25.7423 19.8887C25.1224 21.199 23.1224 21.6204 22.345 21.7289C22.1841 21.7512 22.0551 21.6171 22.0722 21.4583C22.4695 17.8273 19.3108 16.1056 18.4934 15.7099C18.4592 15.6909 18.4512 15.664 18.4546 15.6462C18.4569 15.635 18.4717 15.6171 18.498 15.6137C20.2663 15.5802 22.1681 15.8183 22.8701 15.986Z" fill="#6837F0"/>
<rect x="8.33334" y="30" width="12" height="3" rx="1.5" fill="#F95BE9"/>
</svg>
