<svg width="24" height="21" viewBox="0 0 24 21" fill="none" xmlns="http://www.w3.org/2000/svg">
<path d="M14.2478 5.55615C14.2478 8.64053 11.7238 11.1123 8.57422 11.1123C5.42581 11.1123 2.90069 8.64053 2.90069 5.55615C2.90069 2.47176 5.42581 0 8.57422 0C11.7238 0 14.2478 2.47176 14.2478 5.55615Z" fill="#DDDBE1"/>
<path d="M0 17.4036C0 14.5484 3.94978 13.834 8.57422 13.834C13.2238 13.834 17.1484 14.573 17.1484 17.4304C17.1484 20.2856 13.1987 21 8.57422 21C3.92467 21 0 20.261 0 17.4036Z" fill="#DDDBE1"/>
<path d="M16.5357 5.65687C16.5357 7.22757 16.0539 8.69319 15.2092 9.91062C15.1213 10.0358 15.1989 10.2046 15.3519 10.2315C15.5642 10.2661 15.7822 10.2874 16.0048 10.2918C18.2195 10.3489 20.2069 8.95255 20.756 6.84971C21.5699 3.72955 19.1818 0.927999 16.1395 0.927999C15.8096 0.927999 15.4934 0.961538 15.1852 1.02302C15.143 1.03197 15.0973 1.05209 15.0745 1.08786C15.0448 1.1337 15.0665 1.19295 15.0962 1.23208C16.0105 2.48752 16.5357 4.01574 16.5357 5.65687Z" fill="#DDDBE1"/>
<path d="M20.2035 12.486C21.6921 12.7711 22.6704 13.3513 23.0756 14.1976C23.4192 14.8907 23.4192 15.6956 23.0756 16.3887C22.4558 17.699 20.4558 18.1204 19.6784 18.2289C19.5174 18.2512 19.3884 18.1171 19.4055 17.9583C19.8028 14.3273 16.6441 12.6056 15.8268 12.2099C15.7925 12.1909 15.7845 12.164 15.7879 12.1462C15.7902 12.135 15.8051 12.1171 15.8313 12.1137C17.5996 12.0802 19.5014 12.3183 20.2035 12.486Z" fill="#DDDBE1"/>
</svg>
