<svg width="14" height="14" viewBox="0 0 14 14" fill="none" xmlns="http://www.w3.org/2000/svg">
<path d="M9.7837 0H3.55556C1.28593 0 0 1.28593 0 3.55556V9.77778C0 12.0474 1.28593 13.3333 3.55556 13.3333H9.7837C12.0533 13.3333 13.3333 12.0474 13.3333 9.77778V3.55556C13.3333 1.28593 12.0533 0 9.7837 0Z" fill="#C6C3CE"/>
<path d="M3.57894 4.91268C3.27672 4.91268 3.02783 5.16157 3.02783 5.46972V10.0505C3.02783 10.3527 3.27672 10.6016 3.57894 10.6016C3.88709 10.6016 4.13598 10.3527 4.13598 10.0505V5.46972C4.13598 5.16157 3.88709 4.91268 3.57894 4.91268Z" fill="white"/>
<path d="M6.68995 2.72599C6.38772 2.72599 6.13883 2.97488 6.13883 3.28303V10.0504C6.13883 10.3527 6.38772 10.6015 6.68995 10.6015C6.99809 10.6015 7.24698 10.3527 7.24698 10.0504V3.28303C7.24698 2.97488 6.99809 2.72599 6.68995 2.72599Z" fill="white"/>
<path d="M9.75967 7.33049C9.45153 7.33049 9.20264 7.57937 9.20264 7.88752V10.0505C9.20264 10.3527 9.45153 10.6016 9.75375 10.6016C10.0619 10.6016 10.3108 10.3527 10.3108 10.0505V7.88752C10.3108 7.57937 10.0619 7.33049 9.75967 7.33049Z" fill="white"/>
</svg>
