<svg width="29" height="28" viewBox="0 0 29 28" fill="none" xmlns="http://www.w3.org/2000/svg">
<path d="M5.33301 9.1C5.33301 7.13982 5.33301 6.15972 5.71449 5.41103C6.05004 4.75247 6.58547 4.21703 7.24404 3.88148C7.99273 3.5 8.97282 3.5 10.933 3.5H18.3997C20.3599 3.5 21.34 3.5 22.0886 3.88148C22.7472 4.21703 23.2826 4.75247 23.6182 5.41103C23.9997 6.15972 23.9997 7.13982 23.9997 9.1V20.0667C23.9997 22.0269 23.9997 23.0069 23.6182 23.7556C23.2826 24.4142 22.7472 24.9496 22.0886 25.2852C21.34 25.6667 20.3599 25.6667 18.3997 25.6667H10.933C8.97282 25.6667 7.99273 25.6667 7.24404 25.2852C6.58547 24.9496 6.05004 24.4142 5.71449 23.7556C5.33301 23.0069 5.33301 22.0269 5.33301 20.0667V9.1Z" fill="#DDDBE1"/>
<path fill-rule="evenodd" clip-rule="evenodd" d="M11.1667 11.6666C11.811 11.6666 12.3333 11.1443 12.3333 10.4999C12.3333 9.85559 11.811 9.33325 11.1667 9.33325C10.5223 9.33325 10 9.85559 10 10.4999C10 11.1443 10.5223 11.6666 11.1667 11.6666ZM15.8333 9.33325C15.189 9.33325 14.6667 9.85559 14.6667 10.4999C14.6667 11.1443 15.189 11.6666 15.8333 11.6666H18.1667C18.811 11.6666 19.3333 11.1443 19.3333 10.4999C19.3333 9.85559 18.811 9.33325 18.1667 9.33325H15.8333ZM15.8333 13.9999C15.189 13.9999 14.6667 14.5223 14.6667 15.1666C14.6667 15.8109 15.189 16.3333 15.8333 16.3333H18.1667C18.811 16.3333 19.3333 15.8109 19.3333 15.1666C19.3333 14.5223 18.811 13.9999 18.1667 13.9999H15.8333ZM14.6667 19.8333C14.6667 19.1889 15.189 18.6666 15.8333 18.6666H18.1667C18.811 18.6666 19.3333 19.1889 19.3333 19.8333C19.3333 20.4776 18.811 20.9999 18.1667 20.9999H15.8333C15.189 20.9999 14.6667 20.4776 14.6667 19.8333ZM12.3333 15.1666C12.3333 15.8109 11.811 16.3333 11.1667 16.3333C10.5223 16.3333 10 15.8109 10 15.1666C10 14.5223 10.5223 13.9999 11.1667 13.9999C11.811 13.9999 12.3333 14.5223 12.3333 15.1666ZM11.1667 20.9999C11.811 20.9999 12.3333 20.4776 12.3333 19.8333C12.3333 19.1889 11.811 18.6666 11.1667 18.6666C10.5223 18.6666 10 19.1889 10 19.8333C10 20.4776 10.5223 20.9999 11.1667 20.9999Z" fill="white"/>
<path d="M11.1665 3.49992C11.1665 2.85559 11.6888 2.33325 12.3332 2.33325H16.9998C17.6442 2.33325 18.1665 2.85559 18.1665 3.49992V4.66659C18.1665 5.31092 17.6442 5.83325 16.9998 5.83325H12.3332C11.6888 5.83325 11.1665 5.31092 11.1665 4.66659V3.49992Z" fill="white"/>
</svg>
