<svg width="29" height="33" viewBox="0 0 29 33" fill="none" xmlns="http://www.w3.org/2000/svg">
<path d="M5.33334 9.1C5.33334 7.13982 5.33334 6.15972 5.71482 5.41103C6.05037 4.75247 6.58581 4.21703 7.24437 3.88148C7.99306 3.5 8.97316 3.5 10.9333 3.5H18.4C20.3602 3.5 21.3403 3.5 22.089 3.88148C22.7475 4.21703 23.283 4.75247 23.6185 5.41103C24 6.15972 24 7.13982 24 9.1V20.0667C24 22.0269 24 23.0069 23.6185 23.7556C23.283 24.4142 22.7475 24.9496 22.089 25.2852C21.3403 25.6667 20.3602 25.6667 18.4 25.6667H10.9333C8.97316 25.6667 7.99306 25.6667 7.24437 25.2852C6.58581 24.9496 6.05037 24.4142 5.71482 23.7556C5.33334 23.0069 5.33334 22.0269 5.33334 20.0667V9.1Z" fill="#6837F0"/>
<path fill-rule="evenodd" clip-rule="evenodd" d="M11.1667 11.6667C11.811 11.6667 12.3333 11.1443 12.3333 10.5C12.3333 9.85567 11.811 9.33334 11.1667 9.33334C10.5223 9.33334 10 9.85567 10 10.5C10 11.1443 10.5223 11.6667 11.1667 11.6667ZM15.8333 9.33334C15.189 9.33334 14.6667 9.85567 14.6667 10.5C14.6667 11.1443 15.189 11.6667 15.8333 11.6667H18.1667C18.811 11.6667 19.3333 11.1443 19.3333 10.5C19.3333 9.85567 18.811 9.33334 18.1667 9.33334H15.8333ZM15.8333 14C15.189 14 14.6667 14.5223 14.6667 15.1667C14.6667 15.811 15.189 16.3333 15.8333 16.3333H18.1667C18.811 16.3333 19.3333 15.811 19.3333 15.1667C19.3333 14.5223 18.811 14 18.1667 14H15.8333ZM14.6667 19.8333C14.6667 19.189 15.189 18.6667 15.8333 18.6667H18.1667C18.811 18.6667 19.3333 19.189 19.3333 19.8333C19.3333 20.4777 18.811 21 18.1667 21H15.8333C15.189 21 14.6667 20.4777 14.6667 19.8333ZM12.3333 15.1667C12.3333 15.811 11.811 16.3333 11.1667 16.3333C10.5223 16.3333 10 15.811 10 15.1667C10 14.5223 10.5223 14 11.1667 14C11.811 14 12.3333 14.5223 12.3333 15.1667ZM11.1667 21C11.811 21 12.3333 20.4777 12.3333 19.8333C12.3333 19.189 11.811 18.6667 11.1667 18.6667C10.5223 18.6667 10 19.189 10 19.8333C10 20.4777 10.5223 21 11.1667 21Z" fill="white"/>
<path d="M11.1667 3.5C11.1667 2.85567 11.689 2.33334 12.3333 2.33334H17C17.6443 2.33334 18.1667 2.85567 18.1667 3.5V4.66667C18.1667 5.311 17.6443 5.83334 17 5.83334H12.3333C11.689 5.83334 11.1667 5.311 11.1667 4.66667V3.5Z" fill="white"/>
<rect x="8.66667" y="30" width="12" height="3" rx="1.5" fill="#F95BE9"/>
</svg>
