<svg width="16" height="16" viewBox="0 0 16 16" fill="none" xmlns="http://www.w3.org/2000/svg">
<path d="M16 8C16 10.1217 15.1572 12.1566 13.6569 13.6569C12.1566 15.1571 10.1217 16 8 16C5.87827 16 3.84344 15.1571 2.34315 13.6569C0.842859 12.1566 0 10.1217 0 8C0 5.87827 0.842859 3.84344 2.34315 2.34315C3.84344 0.842856 5.87827 0 8 0C10.1217 0 12.1566 0.842856 13.6569 2.34315C15.1572 3.84344 16 5.87827 16 8ZM5.07735 7.63968C5.07735 7.49772 5.04939 7.35715 4.99506 7.226C4.94074 7.09485 4.86111 6.97568 4.76073 6.8753C4.66035 6.77492 4.54119 6.6953 4.41004 6.64098C4.27889 6.58665 4.13832 6.55869 3.99636 6.55869C3.70967 6.55869 3.43472 6.67258 3.232 6.8753C3.02927 7.07803 2.91538 7.35298 2.91538 7.63968C2.91538 7.92637 3.02927 8.20132 3.232 8.40405C3.43472 8.60677 3.70967 8.72066 3.99636 8.72066C4.13832 8.72066 4.27889 8.6927 4.41004 8.63837C4.54119 8.58405 4.66035 8.50442 4.76073 8.40405C4.86111 8.30367 4.94074 8.1845 4.99506 8.05335C5.04939 7.9222 5.07735 7.78163 5.07735 7.63968ZM13.0846 7.63968C13.0846 7.35298 12.9707 7.07803 12.768 6.8753C12.5653 6.67258 12.2903 6.55869 12.0036 6.55869C11.717 6.55869 11.442 6.67258 11.2393 6.8753C11.0366 7.07803 10.9227 7.35298 10.9227 7.63968C10.9227 7.92637 11.0366 8.20132 11.2393 8.40405C11.442 8.60677 11.717 8.72066 12.0036 8.72066C12.2903 8.72066 12.5653 8.60677 12.768 8.40405C12.9707 8.20132 13.0846 7.92637 13.0846 7.63968ZM10.2348 9.68153C9.09191 11.1483 6.99546 11.4577 5.89992 9.82712C5.66213 9.47286 5.34425 9.37095 4.94631 9.52139C4.87837 9.54565 4.82136 9.58811 4.77526 9.64877C4.47923 10.0346 4.48772 10.4143 4.80073 10.788C6.60237 12.9463 9.73612 12.9172 11.3339 10.5696C11.6275 10.1401 11.5426 9.80892 11.0792 9.57598L10.9627 9.51775C10.674 9.37216 10.4313 9.42676 10.2348 9.68153Z" fill="#C6C3CE"/>
<path d="M3.99636 8.72066C4.59338 8.72066 5.07735 8.23669 5.07735 7.63968C5.07735 7.04267 4.59338 6.55869 3.99636 6.55869C3.39935 6.55869 2.91538 7.04267 2.91538 7.63968C2.91538 8.23669 3.39935 8.72066 3.99636 8.72066Z" fill="white"/>
<path d="M12.0036 8.72066C12.6007 8.72066 13.0846 8.23669 13.0846 7.63968C13.0846 7.04267 12.6007 6.55869 12.0036 6.55869C11.4066 6.55869 10.9227 7.04267 10.9227 7.63968C10.9227 8.23669 11.4066 8.72066 12.0036 8.72066Z" fill="white"/>
<path d="M5.89992 9.82712C6.99546 11.4577 9.09191 11.1483 10.2348 9.68153C10.4313 9.42676 10.674 9.37216 10.9627 9.51775L11.0792 9.57598C11.5426 9.80892 11.6275 10.1401 11.3339 10.5696C9.73612 12.9172 6.60237 12.9463 4.80073 10.788C4.48772 10.4143 4.47923 10.0346 4.77526 9.64877C4.82136 9.58811 4.87837 9.54565 4.94631 9.52139C5.34425 9.37095 5.66213 9.47286 5.89992 9.82712Z" fill="white"/>
</svg>
